<svg width="22" height="23" viewBox="0 0 22 23" fill="none" xmlns="http://www.w3.org/2000/svg">
<path d="M20.3175 6.64139L19.8239 5.78479C19.4506 5.13696 19.264 4.81305 18.9464 4.68388C18.6288 4.55472 18.2696 4.65664 17.5513 4.86048L16.3311 5.20418C15.8725 5.30994 15.3913 5.24994 14.9726 5.03479L14.6357 4.84042C14.2766 4.61043 14.0004 4.27133 13.8475 3.87274L13.5136 2.87536C13.294 2.21534 13.1842 1.88533 12.9228 1.69657C12.6615 1.50781 12.3143 1.50781 11.6199 1.50781H10.5051C9.81078 1.50781 9.4636 1.50781 9.20223 1.69657C8.94085 1.88533 8.83106 2.21534 8.61149 2.87536L8.27753 3.87274C8.12465 4.27133 7.84845 4.61043 7.48937 4.84042L7.15249 5.03479C6.73374 5.24994 6.25259 5.30994 5.79398 5.20418L4.57375 4.86048C3.85541 4.65664 3.49625 4.55472 3.17867 4.68388C2.86109 4.81305 2.67445 5.13696 2.30115 5.78479L1.80757 6.64139C1.45766 7.24864 1.2827 7.55227 1.31666 7.87549C1.35061 8.19871 1.58483 8.45918 2.05326 8.98012L3.0843 10.1328C3.3363 10.4518 3.51521 11.0078 3.51521 11.5077C3.51521 12.0078 3.33636 12.5636 3.08433 12.8827L2.05326 14.0354C1.58483 14.5564 1.35062 14.8168 1.31666 15.1401C1.2827 15.4633 1.45766 15.7669 1.80757 16.3741L2.30114 17.2307C2.67443 17.8785 2.86109 18.2025 3.17867 18.3316C3.49625 18.4608 3.85542 18.3589 4.57377 18.155L5.79394 17.8113C6.25263 17.7055 6.73387 17.7656 7.15267 17.9808L7.4895 18.1752C7.84851 18.4052 8.12464 18.7442 8.2775 19.1428L8.61149 20.1403C8.83106 20.8003 8.94085 21.1303 9.20223 21.3191C9.4636 21.5078 9.81078 21.5078 10.5051 21.5078H11.6199C12.3143 21.5078 12.6615 21.5078 12.9228 21.3191C13.1842 21.1303 13.294 20.8003 13.5136 20.1403L13.8476 19.1428C14.0004 18.7442 14.2765 18.4052 14.6356 18.1752L14.9724 17.9808C15.3912 17.7656 15.8724 17.7055 16.3311 17.8113L17.5513 18.155C18.2696 18.3589 18.6288 18.4608 18.9464 18.3316C19.264 18.2025 19.4506 17.8785 19.8239 17.2307L20.3175 16.3741C20.6674 15.7669 20.8423 15.4633 20.8084 15.1401C20.7744 14.8168 20.5402 14.5564 20.0718 14.0354L19.0407 12.8827C18.7887 12.5636 18.6098 12.0078 18.6098 11.5077C18.6098 11.0078 18.7888 10.4518 19.0407 10.1328L20.0718 8.98012C20.5402 8.45918 20.7744 8.19871 20.8084 7.87549C20.8423 7.55227 20.6674 7.24864 20.3175 6.64139Z" stroke="#2A353D" stroke-width="2" stroke-linecap="round"/>
<path d="M14.5195 11.5C14.5195 13.433 12.9525 15 11.0195 15C9.08653 15 7.51953 13.433 7.51953 11.5C7.51953 9.567 9.08653 8 11.0195 8C12.9525 8 14.5195 9.567 14.5195 11.5Z" stroke="#2A353D" stroke-width="2"/>
</svg>
