<svg width="24" height="25" viewBox="0 0 24 25" fill="none" xmlns="http://www.w3.org/2000/svg">
<path d="M7 7H16.75C18.8567 7 19.91 7 20.6667 7.50559C20.9943 7.72447 21.2755 8.00572 21.4944 8.33329C21.9361 8.9943 21.9919 9.88172 21.999 11.5M12 7L11.3666 5.73313C10.8418 4.68358 10.3622 3.62712 9.19926 3.19101C8.6899 3 8.10802 3 6.94427 3C5.1278 3 4.21956 3 3.53806 3.38032C3.05227 3.65142 2.65142 4.05227 2.38032 4.53806C2 5.21956 2 6.1278 2 7.94427V11C2 15.714 2 18.0711 3.46447 19.5355C4.7646 20.8357 6.7682 20.9816 10.5 20.9979H11" stroke="#2A353D" stroke-width="1.5" stroke-linecap="round"/>
<path d="M18 20.7143V22M18 20.7143C16.8432 20.7143 15.8241 20.1461 15.2263 19.2833M18 20.7143C19.1568 20.7143 20.1759 20.1461 20.7737 19.2833M18 14.2857C19.1569 14.2857 20.1761 14.854 20.7738 15.7169M18 14.2857C16.8431 14.2857 15.8239 14.854 15.2262 15.7169M18 14.2857V13M22 14.9286L20.7738 15.7169M14.0004 20.0714L15.2263 19.2833M14 14.9286L15.2262 15.7169M21.9996 20.0714L20.7737 19.2833M20.7738 15.7169C21.1273 16.2271 21.3333 16.8403 21.3333 17.5C21.3333 18.1597 21.1272 18.773 20.7737 19.2833M15.2262 15.7169C14.8727 16.2271 14.6667 16.8403 14.6667 17.5C14.6667 18.1597 14.8728 18.773 15.2263 19.2833" stroke="#2A353D" stroke-width="1.5" stroke-linecap="round"/>
</svg>
