<svg width="24" height="25" viewBox="0 0 24 25" fill="none" xmlns="http://www.w3.org/2000/svg">
<path d="M14 18.5C14 18.5 15 18.5 16 20.5C16 20.5 19.1765 15.5 22 14.5" stroke="#141B34" stroke-width="1.5" stroke-linecap="round" stroke-linejoin="round"/>
<path d="M13 22.5H6.59087C5.04549 22.5 3.81631 21.748 2.71266 20.6966C0.453365 18.5441 4.1628 16.824 5.57757 15.9816C8.75591 14.0891 12.7529 14.0096 16 15.7432" stroke="#141B34" stroke-width="1.5" stroke-linecap="round" stroke-linejoin="round"/>
<path d="M16.5 7C16.5 9.48528 14.4853 11.5 12 11.5C9.51472 11.5 7.5 9.48528 7.5 7C7.5 4.51472 9.51472 2.5 12 2.5C14.4853 2.5 16.5 4.51472 16.5 7Z" stroke="#141B34" stroke-width="1.5"/>
</svg>
